<mxfile host="app.diagrams.net" modified="2023-07-04T12:46:35.433Z" agent="Mozilla/5.0 (Macintosh; Intel Mac OS X 10_15_7) AppleWebKit/537.36 (KHTML, like Gecko) Chrome/114.0.0.0 Safari/537.36" etag="-Sfy5d17aUjGrZo8nRMI" version="21.5.0" type="github">
  <diagram name="第 1 页" id="1frLAyx7Ao2BgWXEjT3e">
    <mxGraphModel dx="1602" dy="1108" grid="1" gridSize="10" guides="1" tooltips="1" connect="1" arrows="1" fold="1" page="1" pageScale="1" pageWidth="827" pageHeight="1169" math="0" shadow="0">
      <root>
        <mxCell id="0" />
        <mxCell id="1" parent="0" />
        <mxCell id="i0a-wmi7Up6VofEtSDoC-9" style="edgeStyle=orthogonalEdgeStyle;rounded=0;orthogonalLoop=1;jettySize=auto;html=1;exitX=1;exitY=0.5;exitDx=0;exitDy=0;entryX=0;entryY=0.5;entryDx=0;entryDy=0;" parent="1" source="i0a-wmi7Up6VofEtSDoC-1" target="i0a-wmi7Up6VofEtSDoC-8" edge="1">
          <mxGeometry relative="1" as="geometry" />
        </mxCell>
        <mxCell id="i0a-wmi7Up6VofEtSDoC-1" value="KOL数量" style="rounded=1;whiteSpace=wrap;html=1;" parent="1" vertex="1">
          <mxGeometry x="200" y="115" width="80" height="40" as="geometry" />
        </mxCell>
        <mxCell id="i0a-wmi7Up6VofEtSDoC-5" style="edgeStyle=orthogonalEdgeStyle;rounded=0;orthogonalLoop=1;jettySize=auto;html=1;exitX=1;exitY=0.5;exitDx=0;exitDy=0;entryX=0;entryY=0.5;entryDx=0;entryDy=0;" parent="1" source="i0a-wmi7Up6VofEtSDoC-2" target="i0a-wmi7Up6VofEtSDoC-1" edge="1">
          <mxGeometry relative="1" as="geometry" />
        </mxCell>
        <mxCell id="i0a-wmi7Up6VofEtSDoC-6" style="edgeStyle=orthogonalEdgeStyle;rounded=0;orthogonalLoop=1;jettySize=auto;html=1;exitX=1;exitY=0.5;exitDx=0;exitDy=0;entryX=0;entryY=0.5;entryDx=0;entryDy=0;" parent="1" source="i0a-wmi7Up6VofEtSDoC-2" target="i0a-wmi7Up6VofEtSDoC-3" edge="1">
          <mxGeometry relative="1" as="geometry" />
        </mxCell>
        <mxCell id="i0a-wmi7Up6VofEtSDoC-7" style="edgeStyle=orthogonalEdgeStyle;rounded=0;orthogonalLoop=1;jettySize=auto;html=1;exitX=1;exitY=0.5;exitDx=0;exitDy=0;entryX=0;entryY=0.5;entryDx=0;entryDy=0;" parent="1" source="i0a-wmi7Up6VofEtSDoC-2" target="i0a-wmi7Up6VofEtSDoC-4" edge="1">
          <mxGeometry relative="1" as="geometry" />
        </mxCell>
        <mxCell id="i0a-wmi7Up6VofEtSDoC-2" value="开始" style="ellipse;whiteSpace=wrap;html=1;aspect=fixed;" parent="1" vertex="1">
          <mxGeometry x="80" y="170" width="50" height="50" as="geometry" />
        </mxCell>
        <mxCell id="i0a-wmi7Up6VofEtSDoC-10" style="edgeStyle=orthogonalEdgeStyle;rounded=0;orthogonalLoop=1;jettySize=auto;html=1;exitX=1;exitY=0.5;exitDx=0;exitDy=0;entryX=0;entryY=0.5;entryDx=0;entryDy=0;" parent="1" source="i0a-wmi7Up6VofEtSDoC-3" target="i0a-wmi7Up6VofEtSDoC-8" edge="1">
          <mxGeometry relative="1" as="geometry" />
        </mxCell>
        <mxCell id="i0a-wmi7Up6VofEtSDoC-3" value="作品数" style="rounded=1;whiteSpace=wrap;html=1;" parent="1" vertex="1">
          <mxGeometry x="200" y="175" width="80" height="40" as="geometry" />
        </mxCell>
        <mxCell id="i0a-wmi7Up6VofEtSDoC-11" style="edgeStyle=orthogonalEdgeStyle;rounded=0;orthogonalLoop=1;jettySize=auto;html=1;exitX=1;exitY=0.5;exitDx=0;exitDy=0;entryX=0;entryY=0.5;entryDx=0;entryDy=0;" parent="1" source="i0a-wmi7Up6VofEtSDoC-4" target="i0a-wmi7Up6VofEtSDoC-8" edge="1">
          <mxGeometry relative="1" as="geometry" />
        </mxCell>
        <mxCell id="i0a-wmi7Up6VofEtSDoC-4" value="粉丝数" style="rounded=1;whiteSpace=wrap;html=1;" parent="1" vertex="1">
          <mxGeometry x="200" y="235" width="80" height="40" as="geometry" />
        </mxCell>
        <mxCell id="i0a-wmi7Up6VofEtSDoC-13" style="edgeStyle=orthogonalEdgeStyle;rounded=0;orthogonalLoop=1;jettySize=auto;html=1;exitX=1;exitY=0.5;exitDx=0;exitDy=0;entryX=0;entryY=0.5;entryDx=0;entryDy=0;" parent="1" source="i0a-wmi7Up6VofEtSDoC-8" target="i0a-wmi7Up6VofEtSDoC-12" edge="1">
          <mxGeometry relative="1" as="geometry" />
        </mxCell>
        <mxCell id="i0a-wmi7Up6VofEtSDoC-8" value="组装结果" style="rounded=1;whiteSpace=wrap;html=1;" parent="1" vertex="1">
          <mxGeometry x="334" y="175" width="80" height="40" as="geometry" />
        </mxCell>
        <mxCell id="i0a-wmi7Up6VofEtSDoC-12" value="返回数据" style="rounded=1;whiteSpace=wrap;html=1;" parent="1" vertex="1">
          <mxGeometry x="460" y="175" width="80" height="40" as="geometry" />
        </mxCell>
        <mxCell id="i0a-wmi7Up6VofEtSDoC-14" value="开始" style="ellipse;whiteSpace=wrap;html=1;aspect=fixed;" parent="1" vertex="1">
          <mxGeometry x="50" y="490" width="50" height="50" as="geometry" />
        </mxCell>
        <mxCell id="i0a-wmi7Up6VofEtSDoC-25" style="edgeStyle=orthogonalEdgeStyle;rounded=0;orthogonalLoop=1;jettySize=auto;html=1;exitX=1;exitY=0.5;exitDx=0;exitDy=0;entryX=0;entryY=0.5;entryDx=0;entryDy=0;" parent="1" source="i0a-wmi7Up6VofEtSDoC-15" target="i0a-wmi7Up6VofEtSDoC-17" edge="1">
          <mxGeometry relative="1" as="geometry" />
        </mxCell>
        <mxCell id="i0a-wmi7Up6VofEtSDoC-15" value="KOL总数量&lt;br&gt;（最新）" style="rounded=1;whiteSpace=wrap;html=1;" parent="1" vertex="1">
          <mxGeometry x="334" y="330" width="80" height="40" as="geometry" />
        </mxCell>
        <mxCell id="i0a-wmi7Up6VofEtSDoC-26" style="edgeStyle=orthogonalEdgeStyle;rounded=0;orthogonalLoop=1;jettySize=auto;html=1;exitX=1;exitY=0.5;exitDx=0;exitDy=0;entryX=0;entryY=0.5;entryDx=0;entryDy=0;" parent="1" source="i0a-wmi7Up6VofEtSDoC-16" target="i0a-wmi7Up6VofEtSDoC-17" edge="1">
          <mxGeometry relative="1" as="geometry" />
        </mxCell>
        <mxCell id="i0a-wmi7Up6VofEtSDoC-16" value="KOL数量&lt;br&gt;（7天前）" style="rounded=1;whiteSpace=wrap;html=1;" parent="1" vertex="1">
          <mxGeometry x="334" y="395" width="80" height="40" as="geometry" />
        </mxCell>
        <mxCell id="i0a-wmi7Up6VofEtSDoC-27" style="edgeStyle=orthogonalEdgeStyle;rounded=0;orthogonalLoop=1;jettySize=auto;html=1;exitX=1;exitY=0.5;exitDx=0;exitDy=0;entryX=0;entryY=0.5;entryDx=0;entryDy=0;" parent="1" source="i0a-wmi7Up6VofEtSDoC-17" target="i0a-wmi7Up6VofEtSDoC-18" edge="1">
          <mxGeometry relative="1" as="geometry" />
        </mxCell>
        <mxCell id="i0a-wmi7Up6VofEtSDoC-17" value="计算环比" style="rounded=1;whiteSpace=wrap;html=1;" parent="1" vertex="1">
          <mxGeometry x="454" y="360" width="80" height="40" as="geometry" />
        </mxCell>
        <mxCell id="i0a-wmi7Up6VofEtSDoC-23" style="edgeStyle=orthogonalEdgeStyle;rounded=0;orthogonalLoop=1;jettySize=auto;html=1;exitX=0.5;exitY=1;exitDx=0;exitDy=0;entryX=0;entryY=0.5;entryDx=0;entryDy=0;" parent="1" source="i0a-wmi7Up6VofEtSDoC-18" target="i0a-wmi7Up6VofEtSDoC-21" edge="1">
          <mxGeometry relative="1" as="geometry" />
        </mxCell>
        <mxCell id="i0a-wmi7Up6VofEtSDoC-24" style="edgeStyle=orthogonalEdgeStyle;rounded=0;orthogonalLoop=1;jettySize=auto;html=1;exitX=0.5;exitY=1;exitDx=0;exitDy=0;entryX=0;entryY=0.5;entryDx=0;entryDy=0;" parent="1" source="i0a-wmi7Up6VofEtSDoC-18" target="i0a-wmi7Up6VofEtSDoC-22" edge="1">
          <mxGeometry relative="1" as="geometry" />
        </mxCell>
        <mxCell id="i0a-wmi7Up6VofEtSDoC-18" value="组装结果" style="rounded=1;whiteSpace=wrap;html=1;" parent="1" vertex="1">
          <mxGeometry x="574" y="360" width="80" height="40" as="geometry" />
        </mxCell>
        <mxCell id="i0a-wmi7Up6VofEtSDoC-21" value="KOL总量" style="rounded=1;whiteSpace=wrap;html=1;" parent="1" vertex="1">
          <mxGeometry x="634" y="420" width="60" height="30" as="geometry" />
        </mxCell>
        <mxCell id="i0a-wmi7Up6VofEtSDoC-22" value="环比" style="rounded=1;whiteSpace=wrap;html=1;" parent="1" vertex="1">
          <mxGeometry x="634" y="460" width="60" height="30" as="geometry" />
        </mxCell>
        <mxCell id="i0a-wmi7Up6VofEtSDoC-28" value="KOL authorIds" style="rounded=1;whiteSpace=wrap;html=1;" parent="1" vertex="1">
          <mxGeometry x="140" y="460" width="80" height="40" as="geometry" />
        </mxCell>
        <mxCell id="i0a-wmi7Up6VofEtSDoC-29" value="KOL authorIds&lt;br&gt;（7天前）" style="rounded=1;whiteSpace=wrap;html=1;" parent="1" vertex="1">
          <mxGeometry x="140" y="525" width="80" height="40" as="geometry" />
        </mxCell>
        <mxCell id="i0a-wmi7Up6VofEtSDoC-30" value="作品数&lt;br&gt;（7天前）" style="rounded=1;whiteSpace=wrap;html=1;" parent="1" vertex="1">
          <mxGeometry x="334" y="525" width="80" height="40" as="geometry" />
        </mxCell>
        <mxCell id="i0a-wmi7Up6VofEtSDoC-31" value="作品数&lt;br&gt;（近7天）" style="rounded=1;whiteSpace=wrap;html=1;" parent="1" vertex="1">
          <mxGeometry x="334" y="460" width="80" height="40" as="geometry" />
        </mxCell>
        <mxCell id="i0a-wmi7Up6VofEtSDoC-32" value="粉丝数&lt;br&gt;（最新）" style="rounded=1;whiteSpace=wrap;html=1;" parent="1" vertex="1">
          <mxGeometry x="334" y="590" width="80" height="40" as="geometry" />
        </mxCell>
        <mxCell id="i0a-wmi7Up6VofEtSDoC-33" value="粉丝数&lt;br&gt;（7天前）" style="rounded=1;whiteSpace=wrap;html=1;" parent="1" vertex="1">
          <mxGeometry x="334" y="655" width="80" height="40" as="geometry" />
        </mxCell>
        <mxCell id="MiEuOISrX6t_ZrZpsNUI-1" value="request" style="rounded=1;whiteSpace=wrap;html=1;" vertex="1" parent="1">
          <mxGeometry x="80" y="800" width="80" height="40" as="geometry" />
        </mxCell>
        <mxCell id="MiEuOISrX6t_ZrZpsNUI-2" value="参数处理" style="rounded=1;whiteSpace=wrap;html=1;" vertex="1" parent="1">
          <mxGeometry x="190" y="800" width="80" height="40" as="geometry" />
        </mxCell>
        <mxCell id="MiEuOISrX6t_ZrZpsNUI-3" value="输出map[string]interface{}" style="rounded=1;whiteSpace=wrap;html=1;" vertex="1" parent="1">
          <mxGeometry x="300" y="800" width="120" height="40" as="geometry" />
        </mxCell>
        <mxCell id="MiEuOISrX6t_ZrZpsNUI-4" value="followSoleTopFanFilterSql" style="rounded=1;whiteSpace=wrap;html=1;" vertex="1" parent="1">
          <mxGeometry x="480" y="760" width="160" height="40" as="geometry" />
        </mxCell>
        <mxCell id="MiEuOISrX6t_ZrZpsNUI-5" value="followCorrelateTopFanFilterSql" style="rounded=1;whiteSpace=wrap;html=1;" vertex="1" parent="1">
          <mxGeometry x="470" y="840" width="180" height="40" as="geometry" />
        </mxCell>
        <mxCell id="MiEuOISrX6t_ZrZpsNUI-6" value="mergeTop" style="rounded=1;whiteSpace=wrap;html=1;" vertex="1" parent="1">
          <mxGeometry x="720" y="800" width="84" height="40" as="geometry" />
        </mxCell>
        <mxCell id="MiEuOISrX6t_ZrZpsNUI-7" value="输入：sole、correlation" style="rounded=1;whiteSpace=wrap;html=1;" vertex="1" parent="1">
          <mxGeometry x="710" y="610" width="84" height="40" as="geometry" />
        </mxCell>
        <mxCell id="MiEuOISrX6t_ZrZpsNUI-8" value="nonFollowTopFanFilterSql" style="rounded=1;whiteSpace=wrap;html=1;" vertex="1" parent="1">
          <mxGeometry x="470" y="910" width="180" height="40" as="geometry" />
        </mxCell>
      </root>
    </mxGraphModel>
  </diagram>
</mxfile>
